<svg xmlns="http://www.w3.org/2000/svg" viewBox="0 0 30 32"><g fill="currentColor" class="nc-icon-wrapper"><path d="M6.116 22.523c2.632-1.515 5.81-2.313 9.042-2.313s6.41.798 9.042 2.313c2.631 1.514 4.631 3.7 5.558 6.295a1.684 1.684 0 1 1-3.172 1.134c-.608-1.703-1.991-3.314-4.066-4.508s-4.663-1.864-7.362-1.864-5.288.67-7.362 1.864c-2.075 1.194-3.458 2.805-4.066 4.508a1.684 1.684 0 1 1-3.172-1.134c.927-2.594 2.927-4.78 5.558-6.295z"></path><path d="M15.158 3.368a5.053 5.053 0 1 0 0 10.106 5.053 5.053 0 0 0 0-10.106zM6.737 8.421C6.737 3.77 10.507 0 15.158 0s8.421 3.77 8.421 8.421-3.77 8.421-8.421 8.421a8.42 8.42 0 0 1-8.421-8.421z"></path></g></svg>