<svg xmlns="http://www.w3.org/2000/svg" viewBox="0 0 32 32"><g fill="currentColor" class="nc-icon-wrapper"><path d="M15.467 32a1.06 1.06 0 0 1-.538-.146c-.546-.317-13.33-7.891-13.33-17.987C1.599 6.221 7.82 0 15.466 0s13.867 6.221 13.867 13.867c0 10.096-12.784 17.67-13.33 17.987a1.056 1.056 0 0 1-.538.146zm0-29.867c-6.47 0-11.733 5.264-11.733 11.733 0 7.787 9.365 14.291 11.733 15.811 2.368-1.518 11.733-8.024 11.733-15.81 0-6.47-5.264-11.734-11.733-11.734zm0 18.134c-3.53 0-6.4-2.87-6.4-6.4s2.87-6.4 6.4-6.4 6.4 2.87 6.4 6.4-2.872 6.4-6.4 6.4zm0-10.667c-2.354 0-4.267 1.914-4.267 4.267s1.914 4.267 4.267 4.267c2.354 0 4.267-1.914 4.267-4.267S17.819 9.6 15.467 9.6z"></path></g></svg>