<svg xmlns="http://www.w3.org/2000/svg" viewBox="0 0 24 24"><g fill="none" class="nc-icon-wrapper"><path fill-rule="evenodd" clip-rule="evenodd" d="M8.357 12.947c-.503 0-.911-.4-.911-.894v-3.58C7.446 6.004 9.485 4 12 4s4.554 2.003 4.554 4.474v3.579a.903.903 0 0 1-.91.894c-.504 0-.912-.4-.912-.894v-3.58c0-1.482-1.223-2.684-2.732-2.684-1.51 0-2.732 1.202-2.732 2.685v3.579a.903.903 0 0 1-.911.894z" fill="currentColor"></path><path fill-rule="evenodd" clip-rule="evenodd" d="M8.009 8.474h7.982c.747 0 1.394 0 1.916.066.561.072 1.1.233 1.553.643.454.41.662.924.781 1.467.111.506.165 1.139.227 1.87l.472 5.573.005.051c.035.409.068.803.05 1.128-.02.365-.11.79-.447 1.15-.337.36-.761.483-1.13.533-.328.045-.73.045-1.148.045H5.73c-.417 0-.82 0-1.148-.045-.369-.05-.793-.173-1.13-.533-.337-.36-.427-.785-.447-1.15-.018-.325.015-.719.05-1.128l.005-.051.468-5.517.004-.056c.062-.731.116-1.364.227-1.87.12-.543.327-1.057.78-1.467.454-.41.993-.571 1.554-.643.522-.066 1.17-.066 1.916-.066zm-1.681 1.84c-.365.047-.486.123-.555.185-.07.063-.156.175-.233.528-.083.379-.129.895-.197 1.697l-.468 5.517c-.04.48-.061.747-.051.934v.007h.008c.188.027.46.029.95.029h12.436c.49 0 .762-.002.95-.028l.008-.001v-.007c.01-.187-.01-.454-.05-.934l-.469-5.517c-.068-.802-.114-1.318-.197-1.697-.077-.353-.164-.465-.233-.527-.07-.063-.19-.139-.555-.185-.39-.05-.918-.052-1.738-.052H8.066c-.82 0-1.347.002-1.738.052z" fill="currentColor"></path></g></svg>