<svg xmlns="http://www.w3.org/2000/svg" viewBox="0 0 32 32"><g fill="currentColor" class="nc-icon-wrapper"><path d="M8 0a1.6 1.6 0 0 1 1.6 1.6v3.2h12.8V1.6a1.6 1.6 0 1 1 3.2 0v3.207c.797.011 1.509.042 2.125.125 1.049.141 2.054.459 2.869 1.274s1.134 1.821 1.274 2.87c.132.979.131 2.201.131 3.619v11.411c0 1.418 0 2.64-.131 3.619-.141 1.049-.459 2.054-1.274 2.869s-1.821 1.134-2.869 1.274c-.979.132-2.201.131-3.619.131H7.895c-1.418 0-2.641 0-3.619-.131-1.049-.141-2.054-.459-2.87-1.274S.273 28.773.132 27.725C0 26.746 0 25.524.001 24.106V12.695c0-1.418 0-2.64.131-3.619.141-1.049.459-2.054 1.274-2.87s1.821-1.133 2.87-1.274c.616-.083 1.328-.113 2.124-.125V1.6A1.6 1.6 0 0 1 8 0zM4.702 8.103c-.694.093-.912.244-1.033.366s-.272.339-.366 1.033c-.06.448-.085.993-.096 1.698h25.585c-.01-.705-.035-1.25-.096-1.698-.093-.694-.244-.912-.366-1.033s-.339-.272-1.033-.366C26.557 8.004 25.553 8 23.999 8h-16c-1.554 0-2.558.003-3.298.103zM28.8 14.4H3.2V24c0 1.554.003 2.558.103 3.298.093.694.244.912.366 1.033s.339.272 1.033.366c.74.099 1.744.103 3.298.103h16c1.554 0 2.558-.003 3.298-.103.694-.093.912-.244 1.033-.366s.272-.339.366-1.033c.099-.74.103-1.744.103-3.298v-9.6z"></path></g></svg>