<svg xmlns="http://www.w3.org/2000/svg" viewBox="0 0 48 32"><g fill="currentColor" class="nc-icon-wrapper"><path d="M24 27.077c-2.653 0-4.804-2.204-4.804-4.923s2.151-4.923 4.804-4.923c2.653 0 4.804 2.204 4.804 4.923S26.653 27.077 24 27.077zM24 32c5.306 0 9.608-4.408 9.608-9.846S29.306 12.308 24 12.308s-9.608 4.408-9.608 9.846S18.693 32 24 32z"></path><path d="M8.023 13.612C10.678 9.258 15.381 4.923 24 4.923s13.322 4.335 15.977 8.689c1.354 2.22 2.176 4.459 2.658 6.154.24.843.393 1.54.484 2.016a17.414 17.414 0 0 1 .112.659l.003.02c0-.001 0-.002 2.383-.307S48 21.847 48 21.846v-.003l-.001-.007-.003-.02-.008-.062a20.71 20.71 0 0 0-.155-.921c-.115-.601-.3-1.443-.586-2.446-.569-1.997-1.548-4.681-3.196-7.385C40.702 5.51 34.596-.001 24-.001S7.298 5.51 3.949 11.002C2.3 13.706 1.321 16.389.753 18.387a28.955 28.955 0 0 0-.586 2.446 20.297 20.297 0 0 0-.155.921l-.008.062-.003.02-.001.007v.003c0 .001 0 .003 2.383.308s2.383.306 2.383.307v.004c0 .001 0 .002 0 0l.003-.024.018-.124c.018-.116.048-.298.094-.535.091-.476.244-1.173.484-2.016.482-1.695 1.305-3.934 2.658-6.154z"></path></g></svg>