<svg xmlns="http://www.w3.org/2000/svg" viewBox="0 0 46 32"><g fill="currentColor" class="nc-icon-wrapper"><path d="M6.733 0h25.182c.533 0 1.077 0 1.547.044.54.05 1.144.169 1.758.497s1.047.765 1.389 1.187c.298.367.599.82.895 1.263l6.188 9.282c.366.548.734 1.1.997 1.606.301.579.565 1.277.565 2.121s-.264 1.542-.565 2.121c-.263.506-.632 1.058-.997 1.606l-6.188 9.282c-.296.443-.597.896-.895 1.263-.342.421-.775.858-1.389 1.186s-1.217.447-1.758.497c-.471.044-1.014.044-1.547.044H6.733c-.969 0-1.911 0-2.688-.104-.876-.118-1.875-.405-2.706-1.235S.222 28.83.104 27.954C0 27.177 0 26.235 0 25.266V6.856v-.124c0-.969 0-1.911.104-2.688.118-.876.405-1.875 1.235-2.706S3.169.221 4.045.103c.777-.104 1.719-.104 2.688-.104zM4.637 4.637a.088.088 0 0 0-.002.017c-.058.435-.063 1.061-.063 2.203v18.286c0 1.142.005 1.769.063 2.203l.002.017a.088.088 0 0 0 .017.002c.435.058 1.061.063 2.203.063h24.982c.641 0 .966-.002 1.198-.024l.012-.001.007-.009c.147-.181.329-.451.685-.984l6.095-9.143c.437-.656.661-.998.796-1.256l.006-.012-.006-.012c-.134-.258-.359-.6-.796-1.256l-6.095-9.143c-.355-.533-.538-.803-.685-.984l-.007-.009-.012-.001c-.232-.022-.558-.024-1.198-.024H6.857c-1.142 0-1.769.005-2.203.063l-.017.002z"></path><path d="M32 16a2.286 2.286 0 1 1-4.572 0A2.286 2.286 0 0 1 32 16z"></path><path d="M25.143 16a4.571 4.571 0 1 1 9.142 0 4.571 4.571 0 0 1-9.142 0z"></path></g></svg>