<svg xmlns="http://www.w3.org/2000/svg" viewBox="0 0 40 32"><g fill="currentColor" class="nc-icon-wrapper"><path d="M24.129 14.281c.115.606.196 1.211.196 1.997 0 6.86-4.6 11.722-11.525 11.722-6.63 0-12-5.37-12-12s5.37-12 12-12c3.241 0 5.943 1.179 8.038 3.143L17.58 10.27c-.884-.851-2.439-1.85-4.78-1.85-4.093 0-7.433 3.389-7.433 7.58s3.34 7.58 7.433 7.58c4.748 0 6.532-3.422 6.81-5.173H12.8v-4.126h11.329zm11.588.402V11.2h-3.5v3.483h-3.483v3.5h3.483v3.483h3.5v-3.483H39.2v-3.5h-3.483z"></path></g></svg>