<svg xmlns="http://www.w3.org/2000/svg" viewBox="0 0 32 32"><g fill="currentColor" class="nc-icon-wrapper"><path d="M32 16v11.2a4.8 4.8 0 0 1-4.518 4.792L27.2 32h-4.8a1.6 1.6 0 0 1-1.589-1.413L20.8 30.4v-9.6a1.6 1.6 0 0 1 1.413-1.589l.187-.011h7.2V16c0-7.511-6.089-13.6-13.6-13.6S2.4 8.489 2.4 16v3.2h7.2a1.6 1.6 0 0 1 1.6 1.6v9.6A1.6 1.6 0 0 1 9.6 32H4.8A4.8 4.8 0 0 1 0 27.2V16C0 7.163 7.163 0 16 0s16 7.163 16 16zM8.8 21.6H2.4v5.6a2.4 2.4 0 0 0 2.4 2.4h4v-8zm20.8 0h-6.4v8h4a2.4 2.4 0 0 0 2.389-2.169l.011-.231v-5.6z"></path></g></svg>