<svg xmlns="http://www.w3.org/2000/svg" viewBox="0 0 64 56"><g fill="none" class="nc-icon-wrapper"><path d="M27.026 27.985l4.633-2.451 4.632 2.451-.882-5.24 3.738-3.722-5.185-.753-2.304-4.773-2.303 4.773-5.184.753 3.737 3.722-.882 5.24z" fill="currentColor"></path><path d="M55.478 4.534a3.684 3.684 0 0 0-.434-3.242A2.606 2.606 0 0 0 53.912.267c-.474-.22-1-.311-1.513-.246a3.679 3.679 0 0 0 .434 3.242 2.637 2.637 0 0 0 2.645 1.271z" fill="currentColor"></path><path d="M59.808 6.169a3.95 3.95 0 0 0-.343-3.412 3.304 3.304 0 0 0-2.303 2.27 3.973 3.973 0 0 0 .316 3.424c1.119-.31 2-1.18 2.33-2.282z" fill="currentColor"></path><path d="M54.044 9.385a2.847 2.847 0 0 0 2.947-.752 3.22 3.22 0 0 0-2.118-2.27 2.738 2.738 0 0 0-1.58-.078c-.526.13-1 .402-1.368.805a3.14 3.14 0 0 0 2.119 2.295z" fill="currentColor"></path><path d="M58.794 12.161a4.431 4.431 0 0 0-.184 3.762 3.572 3.572 0 0 0 2.816-1.998 4.25 4.25 0 0 0 .185-3.878 3.556 3.556 0 0 0-2.817 2.114z" fill="currentColor"></path><path d="M54.688 16.195a3.048 3.048 0 0 0 1.685.39 3.041 3.041 0 0 0 1.619-.598 3.593 3.593 0 0 0-1.882-2.97 3.048 3.048 0 0 0-1.685-.389 3.041 3.041 0 0 0-1.618.597 3.593 3.593 0 0 0 1.881 2.97z" fill="currentColor"></path><path d="M59.413 23.485a3.598 3.598 0 0 0 1.921-.208 3.482 3.482 0 0 0 1.514-1.193 4.805 4.805 0 0 0 1.066-4.021 3.52 3.52 0 0 0-1.935.233 3.73 3.73 0 0 0-1.526 1.207 4.75 4.75 0 0 0-1.04 3.982z" fill="currentColor"></path><path d="M57.426 19.554a3.204 3.204 0 0 0-1.645-.895 3.333 3.333 0 0 0-1.882.156 4.515 4.515 0 0 0 1.329 3.787 3.225 3.225 0 0 0 1.645.908c.632.13 1.29.078 1.882-.155a4.475 4.475 0 0 0-1.33-3.8z" fill="currentColor"></path><path d="M59.94 26.48a4.713 4.713 0 0 0-1.514 3.84 3.46 3.46 0 0 0 1.921.078 3.45 3.45 0 0 0 1.658-.96 4.719 4.719 0 0 0 1.54-3.84 3.458 3.458 0 0 0-1.921-.064 3.393 3.393 0 0 0-1.685.947z" fill="currentColor"></path><path d="M57.794 30.087a4.488 4.488 0 0 0-.803-3.97 3.291 3.291 0 0 0-1.5-1.154 3.263 3.263 0 0 0-1.895-.143 4.454 4.454 0 0 0 .856 3.97c.368.505.881.895 1.474 1.128a3.2 3.2 0 0 0 1.868.169z" fill="currentColor"></path><path d="M57.728 33.81a4.574 4.574 0 0 0-2.816 3.333 3.513 3.513 0 0 0 1.856.934 3.63 3.63 0 0 0 2.066-.234 4.552 4.552 0 0 0 2.763-3.333 3.509 3.509 0 0 0-1.829-.921 3.78 3.78 0 0 0-2.04.22z" fill="currentColor"></path><path d="M54.373 36.624a5.4 5.4 0 0 0 .46-4.54 4.137 4.137 0 0 0-1.105-1.855 4.241 4.241 0 0 0-1.908-1.05 5.306 5.306 0 0 0-.461 4.54c.197.7.579 1.348 1.105 1.854a4.01 4.01 0 0 0 1.909 1.05z" fill="currentColor"></path><path d="M53.399 40.217a5.029 5.029 0 0 0-3.106 3.657 3.912 3.912 0 0 0 2.027 1.051 4.02 4.02 0 0 0 2.276-.246 5.123 5.123 0 0 0 3.106-3.671 3.978 3.978 0 0 0-2.04-1.038 3.765 3.765 0 0 0-2.263.247z" fill="currentColor"></path><path d="M50.2 38.258a4.352 4.352 0 0 0-1.223-2.036 4.615 4.615 0 0 0-2.092-1.155 5.868 5.868 0 0 0-.514 5.02c.21.778.632 1.479 1.224 2.036.58.558 1.303.96 2.093 1.155a5.864 5.864 0 0 0 .513-5.02z" fill="currentColor"></path><path d="M11.116 3.263A3.68 3.68 0 0 0 11.55.021a2.672 2.672 0 0 0-1.487.259c-.46.22-.842.57-1.105 1.012a3.669 3.669 0 0 0-.316 3.242c.5.04.987-.052 1.434-.285.421-.22.79-.57 1.04-.986z" fill="currentColor"></path><path d="M6.47 8.503a3.885 3.885 0 0 0 .316-3.424 3.304 3.304 0 0 0-2.303-2.27 3.902 3.902 0 0 0-.342 3.412 3.334 3.334 0 0 0 2.33 2.282z" fill="currentColor"></path><path d="M9.945 9.385a3.22 3.22 0 0 0 2.118-2.27 2.823 2.823 0 0 0-1.368-.804 2.727 2.727 0 0 0-1.58.078 3.22 3.22 0 0 0-2.118 2.27 2.8 2.8 0 0 0 1.368.791c.514.13 1.066.117 1.58-.065z" fill="currentColor"></path><path d="M5.378 15.923c.5-1.22.434-2.595-.184-3.762a3.596 3.596 0 0 0-2.816-2.114 4.25 4.25 0 0 0 .184 3.878 3.592 3.592 0 0 0 2.816 1.998z" fill="currentColor"></path><path d="M9.273 16.195a3.617 3.617 0 0 0 1.896-3.022 3.003 3.003 0 0 0-1.62-.597 3.048 3.048 0 0 0-1.684.39 3.607 3.607 0 0 0-1.895 2.97 3.03 3.03 0 0 0 1.606.622 2.944 2.944 0 0 0 1.697-.363z" fill="currentColor"></path><path d="M4.575 23.485A4.696 4.696 0 0 0 3.51 19.49a3.571 3.571 0 0 0-1.5-1.207 3.61 3.61 0 0 0-1.921-.233 4.761 4.761 0 0 0 1.066 4.02c.381.532.908.948 1.513 1.194a3.31 3.31 0 0 0 1.908.22z" fill="currentColor"></path><path d="M5.22 23.355c.592.233 1.25.298 1.882.155a3.225 3.225 0 0 0 1.645-.908 4.475 4.475 0 0 0 1.33-3.787 3.324 3.324 0 0 0-1.883-.156 3.205 3.205 0 0 0-1.645.895 4.35 4.35 0 0 0-1.329 3.8z" fill="currentColor"></path><path d="M5.562 30.32c.106-1.44-.473-2.854-1.54-3.84a3.41 3.41 0 0 0-1.67-.946 3.581 3.581 0 0 0-1.922.065 4.735 4.735 0 0 0 1.54 3.839c.447.48 1.026.817 1.658.973a3.503 3.503 0 0 0 1.934-.09z" fill="currentColor"></path><path d="M9.576 28.802a4.463 4.463 0 0 0 .855-3.968 3.264 3.264 0 0 0-1.895.142 3.363 3.363 0 0 0-1.5 1.155 4.506 4.506 0 0 0-.881 3.969c.631.142 1.29.09 1.895-.143a3.365 3.365 0 0 0 1.526-1.155z" fill="currentColor"></path><path d="M6.326 33.81a3.693 3.693 0 0 0-2.08-.247 3.578 3.578 0 0 0-1.855.947 4.519 4.519 0 0 0 2.83 3.333 3.524 3.524 0 0 0 2.065.233 3.709 3.709 0 0 0 1.856-.933c-.303-1.505-1.369-2.75-2.816-3.334z" fill="currentColor"></path><path d="M9.155 32.084a5.306 5.306 0 0 0 .46 4.54 4.146 4.146 0 0 0 1.909-1.064 4.105 4.105 0 0 0 1.092-1.868 5.255 5.255 0 0 0-.434-4.54 4.124 4.124 0 0 0-1.922 1.064 4.017 4.017 0 0 0-1.105 1.868z" fill="currentColor"></path><path d="M10.971 40.346c2.014.921 3.198 2.595 2.658 3.736-.54 1.154-2.605 1.336-4.619.428-2.013-.92-3.198-2.594-2.658-3.736.54-1.154 2.606-1.336 4.62-.428z" fill="currentColor"></path><path d="M13.787 38.258a5.779 5.779 0 0 0 .514 5.02c.79-.195 1.5-.597 2.079-1.168a4.49 4.49 0 0 0 1.21-2.036 5.862 5.862 0 0 0-.486-5.02 4.613 4.613 0 0 0-2.093 1.155 4.523 4.523 0 0 0-1.224 2.05z" fill="currentColor"></path><path d="M31.04 39.802c.21.026.421.026.619 0 .197.026.381.026.579 0 4.671-1.492 8.725-4.45 11.528-8.418a21.985 21.985 0 0 0 4.014-13.58c0-2.27 0-4.54-.119-6.499a2.217 2.217 0 0 0-.553-1.31 2.384 2.384 0 0 0-1.224-.74h-.157a1.03 1.03 0 0 0-.487 0h-.316a12.942 12.942 0 0 1-6.501-1.673 12.479 12.479 0 0 1-4.712-4.72l-.039-.3a2.245 2.245 0 0 0-.645-.636l-.158-.141a.725.725 0 0 0-.237 0 1.705 1.705 0 0 0-.434-.143h-.855a1.46 1.46 0 0 0-.46.143.575.575 0 0 0-.211 0h-.158l-.342.298c-.119.104-.211.22-.303.337l-.119.156C27.342 6.57 22.96 9.009 18.235 8.97a2.372 2.372 0 0 0-1.776.52 2.262 2.262 0 0 0-.921 1.815v6.407a21.803 21.803 0 0 0 3.96 13.62c2.79 4.02 6.857 6.991 11.542 8.47zM20.144 13.64a17.84 17.84 0 0 0 11.515-5.863c2.921 3.346 7.053 5.435 11.514 5.837v4.202c0 12.569-9.212 16.577-11.515 17.407A17.583 17.583 0 0 1 22.96 28.4a17.118 17.118 0 0 1-2.816-10.597V13.64z" fill="currentColor"></path><path d="M36.08 41.008h-8.843a7.557 7.557 0 0 0-4.659 1.634 7.392 7.392 0 0 0-2.619 4.138l-1.381 6.174a2.263 2.263 0 0 0 .46 1.907 2.33 2.33 0 0 0 1.79.843h21.648a2.31 2.31 0 0 0 1.79-.843 2.263 2.263 0 0 0 .46-1.907l-1.381-6.174a7.392 7.392 0 0 0-2.62-4.138c-1.302-1.05-2.947-1.621-4.645-1.634zM23.697 51.15l.763-3.411a2.808 2.808 0 0 1 .987-1.622 2.866 2.866 0 0 1 1.803-.648h8.843c.658.013 1.29.233 1.803.648.514.415.856.986.987 1.622l.764 3.411h-15.95z" fill="currentColor"></path></g></svg>