<svg xmlns="http://www.w3.org/2000/svg" viewBox="0 0 32 32"><g fill="currentColor" class="nc-icon-wrapper"><path d="M30.828 3.516l-2.344-2.344C27.703.391 26.68 0 25.656 0s-2.047.391-2.829 1.171L.803 23.195l-.794 7.139a1.5 1.5 0 0 0 1.656 1.657l7.134-.788 22.03-22.03a3.998 3.998 0 0 0-.001-5.656zM7.881 29.293l-5.814.644.647-5.823L19.207 7.621l5.173 5.173L7.881 29.293zM29.414 7.759l-3.621 3.621-5.173-5.173 3.621-3.621c.378-.377.88-.586 1.414-.586s1.036.208 1.414.586l2.344 2.344c.779.78.779 2.049 0 2.829z"></path></g></svg>