<svg xmlns="http://www.w3.org/2000/svg" viewBox="0 0 32 32"><g fill="currentColor" class="nc-icon-wrapper"><path d="M30.971 23.034c-.056-.046-6.445-4.619-8.179-4.318-.834.147-1.31.715-2.264 1.853-.154.184-.523.622-.81.934a13.522 13.522 0 0 1-1.762-.717 14.614 14.614 0 0 1-6.742-6.742c-.28-.57-.52-1.158-.717-1.762.314-.286.754-.658.941-.814 1.131-.949 1.699-1.426 1.846-2.261.302-1.726-4.272-8.12-4.318-8.178A2.445 2.445 0 0 0 7.147 0C5.293 0 0 6.866 0 8.022c0 .067.098 6.898 8.52 15.467 8.56 8.413 15.39 8.51 15.458 8.51 1.157 0 8.022-5.293 8.022-7.147a2.438 2.438 0 0 0-1.029-1.819zm-7.11 6.827c-.933-.077-6.664-.834-13.832-7.874C2.952 14.782 2.215 9.033 2.141 8.142A28.873 28.873 0 0 1 7.16 2.209c.043.043.099.107.173.19a37.815 37.815 0 0 1 3.813 6.467c-.344.344-.706.669-1.085.971-.589.45-1.13.957-1.613 1.517l-.259.363.077.438c.226.978.571 1.923 1.029 2.818a16.761 16.761 0 0 0 7.731 7.73c.893.458 1.838.805 2.818 1.03l.438.077.363-.259a10.856 10.856 0 0 0 1.523-1.619c.334-.398.781-.931.949-1.082a37.532 37.532 0 0 1 6.483 3.816c.088.075.15.133.192.17a28.93 28.93 0 0 1-5.931 5.021v.003z"></path></g></svg>