<svg xmlns="http://www.w3.org/2000/svg" viewBox="0 0 32 32"><g fill="currentColor" class="nc-icon-wrapper"><path d="M5.237 0h3.75c.754 0 1.487 0 2.091.081.681.092 1.459.315 2.104.96s.869 1.423.96 2.104c.081.604.081 1.337.081 2.091v3.75c0 .754 0 1.487-.081 2.091-.092.681-.315 1.459-.96 2.104s-1.423.869-2.104.96c-.604.081-1.337.081-2.091.081h-3.75c-.754 0-1.487 0-2.091-.081-.681-.092-1.459-.315-2.104-.96s-.869-1.423-.96-2.104C.001 10.473.001 9.74.001 8.986V5.333v-.097c0-.754 0-1.487.081-2.091.092-.681.315-1.459.96-2.104S2.465.172 3.146.081C3.75 0 4.483 0 5.237 0zm-1.63 3.607l-.002.013c-.045.338-.049.826-.049 1.714V8.89c0 .888.004 1.376.049 1.714l.002.013.013.002c.338.045.826.049 1.714.049H8.89c.888 0 1.376-.004 1.714-.049l.013-.002.002-.013c.045-.338.049-.825.049-1.714V5.334c0-.888-.004-1.376-.049-1.714l-.002-.013-.013-.002c-.338-.045-.825-.049-1.714-.049H5.334c-.888 0-1.376.004-1.714.049l-.013.002z"></path><path d="M5.237 17.778h3.75c.754 0 1.487 0 2.091.081.681.092 1.459.315 2.104.961s.869 1.423.96 2.104c.081.604.081 1.337.081 2.091v3.75c0 .754 0 1.487-.081 2.091-.092.681-.315 1.459-.96 2.104s-1.423.869-2.104.961c-.604.081-1.337.081-2.091.081h-3.75c-.754 0-1.487 0-2.091-.081-.681-.092-1.459-.315-2.104-.961s-.869-1.423-.96-2.104c-.081-.604-.081-1.337-.081-2.091v-3.653-.097c0-.754 0-1.487.081-2.091.092-.681.315-1.459.96-2.104s1.423-.869 2.104-.961c.604-.081 1.337-.081 2.091-.081zm-1.63 3.606l-.002.013c-.045.338-.049.825-.049 1.714v3.556c0 .888.004 1.376.049 1.714l.002.013.013.002c.338.046.826.049 1.714.049H8.89c.888 0 1.376-.004 1.714-.049l.013-.002.002-.013c.045-.338.049-.825.049-1.714v-3.556c0-.888-.004-1.376-.049-1.714l-.002-.013-.013-.002c-.338-.046-.825-.049-1.714-.049H5.334c-.888 0-1.376.004-1.714.049l-.013.002z"></path><path d="M23.014 17.778h3.75c.754 0 1.487 0 2.091.081.681.092 1.459.315 2.104.961s.869 1.423.961 2.104c.081.604.081 1.337.081 2.091v3.75c0 .754 0 1.487-.081 2.091-.092.681-.315 1.459-.961 2.104s-1.423.869-2.104.961c-.604.081-1.337.081-2.091.081h-3.75c-.754 0-1.487 0-2.091-.081-.681-.092-1.459-.315-2.104-.961s-.869-1.423-.961-2.104c-.081-.604-.081-1.337-.081-2.091v-3.653-.097c0-.754 0-1.487.081-2.091.092-.681.315-1.459.961-2.104s1.423-.869 2.104-.961c.604-.081 1.337-.081 2.091-.081zm-1.63 3.606l-.002.013c-.046.338-.049.825-.049 1.714v3.556c0 .888.004 1.376.049 1.714l.002.013.013.002c.338.046.825.049 1.714.049h3.556c.888 0 1.376-.004 1.714-.049l.013-.002.002-.013c.046-.338.049-.825.049-1.714v-3.556c0-.888-.004-1.376-.049-1.714l-.002-.013-.013-.002c-.338-.046-.825-.049-1.714-.049h-3.556c-.888 0-1.376.004-1.714.049l-.013.002z"></path><path d="M23.014 0h3.75c.754 0 1.487 0 2.091.081.681.092 1.459.315 2.104.96s.869 1.423.961 2.104c.081.604.081 1.337.081 2.091v3.75c0 .754 0 1.487-.081 2.091-.092.681-.315 1.459-.961 2.104s-1.423.869-2.104.96c-.604.081-1.337.081-2.091.081h-3.75c-.754 0-1.487 0-2.091-.081-.681-.092-1.459-.315-2.104-.96s-.869-1.423-.961-2.104c-.081-.604-.081-1.337-.081-2.091V5.333v-.097c0-.754 0-1.487.081-2.091.092-.681.315-1.459.961-2.104s1.423-.869 2.104-.96C21.527 0 22.26 0 23.014 0zm-1.63 3.607l-.002.013c-.046.338-.049.826-.049 1.714V8.89c0 .888.004 1.376.049 1.714l.002.013.013.002c.338.045.825.049 1.714.049h3.556c.888 0 1.376-.004 1.714-.049l.013-.002.002-.013c.046-.338.049-.825.049-1.714V5.334c0-.888-.004-1.376-.049-1.714l-.002-.013-.013-.002c-.338-.045-.825-.049-1.714-.049h-3.556c-.888 0-1.376.004-1.714.049l-.013.002z"></path></g></svg>