<svg xmlns="http://www.w3.org/2000/svg" viewBox="0 0 42 48"><g fill="currentColor" class="nc-icon-wrapper"><path d="M18.066 33.052c.376.3.826.526 1.352.676l-8.714 13.896c-.15.226-.376.376-.6.376h-.076c-.3 0-.526-.225-.6-.526l-2.104-6.16-6.46.752c-.3 0-.6-.075-.751-.376-.15-.3-.15-.526 0-.826L8.6 27.419c.225.075.45.226.526.226.075.15.3.6.376.9 0 0 0 .076.075.076L2.14 40.414l5.483-.676H7.7c.3 0 .601.226.676.526l1.803 5.258 7.888-12.47zM41.2 41.014l-8.563-13.596c-.225.075-.526.226-.6.3-.076.076-.226.602-.377.827 0 0 0 .075-.075.075l7.437 11.793-5.483-.676c-.376-.075-.676.15-.826.526l-1.803 5.258-7.738-12.469a3.81 3.81 0 0 1-1.352.676l8.714 13.896c.15.225.376.376.6.376h.076c.3 0 .526-.225.6-.526l2.104-6.16 6.46.752c.3 0 .6-.076.751-.376.225-.15.225-.45.075-.676zM23.174 31.25c-.752.601-1.502 1.202-2.554 1.202-1.052 0-1.803-.676-2.554-1.202-.45-.376-.901-.676-1.277-.826-.45-.075-.977 0-1.578.075-.9.15-1.877.3-2.704-.226-.826-.526-1.202-1.427-1.577-2.253-.226-.526-.45-1.052-.752-1.352-.3-.3-.826-.526-1.351-.751-.827-.3-1.803-.752-2.254-1.578-.45-.826-.376-1.878-.225-2.704.075-.601.15-1.202.075-1.578-.075-.376-.451-.826-.827-1.277-.6-.751-1.202-1.502-1.202-2.553 0-1.052.676-1.803 1.202-2.554.376-.45.676-.902.827-1.277.074-.45 0-.977-.075-1.578-.15-.901-.3-1.878.225-2.704C7.099 7.287 8 6.911 8.827 6.535c.526-.225 1.051-.45 1.351-.751.3-.3.526-.826.752-1.352.3-.826.751-1.803 1.577-2.253.827-.451 1.878-.376 2.704-.226.601.075 1.202.15 1.578.075.376-.075.826-.45 1.277-.826C18.817.601 19.568 0 20.62 0c1.052 0 1.803.676 2.554 1.202.45.376.9.676 1.277.826.45.075.976 0 1.577-.075.901-.15 1.878-.3 2.704.226.827.526 1.202 1.427 1.578 2.253.225.526.45 1.052.751 1.352.3.3.827.526 1.352.751.827.3 1.803.752 2.254 1.578.45.826.375 1.878.225 2.704-.075.601-.15 1.202-.075 1.578.075.376.45.826.826 1.277.601.751 1.202 1.502 1.202 2.553 0 .977-.675 1.803-1.202 2.554-.375.45-.675.901-.826 1.277-.075.45 0 .977.075 1.578.15.901.3 1.878-.225 2.704-.526.826-1.428 1.202-2.254 1.578-.526.225-1.051.45-1.352.751-.3.3-.526.826-.751 1.352-.3.826-.751 1.803-1.578 2.253-.826.451-1.877.376-2.704.226-.6-.075-1.202-.15-1.577-.075-.376.075-.827.45-1.277.826zm-.976-1.202c.526-.45 1.126-.901 1.802-1.051.676-.226 1.428-.075 2.178 0 .676.075 1.352.225 1.728 0 .376-.226.676-.902.901-1.503.3-.675.526-1.351 1.052-1.877s1.202-.827 1.878-1.052c.676-.225 1.277-.526 1.502-.901.225-.376.15-1.052 0-1.728-.075-.751-.225-1.502 0-2.178.15-.676.676-1.277 1.051-1.803.451-.526.902-1.126.902-1.577 0-.451-.451-1.052-.902-1.578-.45-.526-.9-1.127-1.051-1.803-.225-.676-.075-1.427 0-2.178.075-.676.225-1.352 0-1.728-.225-.375-.901-.675-1.502-.9-.676-.301-1.352-.527-1.878-1.052-.526-.526-.827-1.202-1.052-1.878-.225-.676-.526-1.277-.901-1.502-.376-.226-1.052-.15-1.727 0-.752.075-1.503.225-2.179 0-.675-.15-1.276-.676-1.802-1.052-.527-.827-1.128-1.277-1.578-1.277-.45 0-1.052.45-1.578.9-.526.451-1.126.902-1.803 1.052-.676.226-1.427.075-2.178 0-.676-.075-1.352-.225-1.727 0-.376.226-.676.902-.902 1.503-.3.675-.526 1.351-1.051 1.877-.526.527-1.202.827-1.878 1.052-.676.225-1.277.526-1.502.901-.225.376-.15 1.052 0 1.728.075.751.225 1.502 0 2.178-.15.676-.676 1.277-1.052 1.803-.45.526-.901 1.126-.901 1.577 0 .451.45 1.052.901 1.578.45.526.901 1.127 1.052 1.803.225.676.075 1.427 0 2.178-.075.676-.225 1.352 0 1.727.225.376.901.676 1.502.902.676.3 1.352.526 1.878 1.051.526.526.826 1.202 1.051 1.878.226.676.527 1.277.902 1.502.375.226 1.051.15 1.727 0 .45-.075.901-.15 1.352-.15.3 0 .601 0 .901.075.676.15 1.277.676 1.803 1.052.526.45 1.127.9 1.578.9.45.002.976.002 1.503-.449zm-1.578-3.98a9.906 9.906 0 0 1-9.916-9.916c0-5.484 4.433-9.84 9.916-9.84a9.906 9.906 0 0 1 9.915 9.915c0 5.483-4.432 9.84-9.915 9.84zm8.413-9.916a8.4 8.4 0 0 0-8.413-8.413 8.399 8.399 0 0 0-8.413 8.413 8.399 8.399 0 0 0 8.413 8.413 8.399 8.399 0 0 0 8.413-8.413zm-2.93-2.028c.075.3 0 .6-.225.751l-2.104 2.028.527 2.93a.715.715 0 0 1-.3.751c-.151.075-.3.15-.451.15-.15 0-.226 0-.376-.074l-2.554-1.353-2.63 1.352c-.225.15-.526.075-.826-.075a.714.714 0 0 1-.3-.752l.526-2.929-2.103-2.028c-.226-.226-.3-.526-.226-.752.075-.3.3-.45.601-.526l2.93-.45 1.277-2.63c.225-.526 1.126-.526 1.352 0l1.276 2.63 2.93.45c.376.076.601.226.676.527zm-2.328.75l-1.803-.224c-.226 0-.45-.226-.601-.376l-.751-1.652-.826 1.577c-.075.225-.3.376-.601.376l-1.803.225 1.277 1.277c.15.15.225.45.225.676l-.3 1.803 1.577-.827c.075-.075.226-.075.376-.075s.225 0 .376.075l1.577.827-.3-1.803c-.075-.226.075-.526.226-.676l1.35-1.202z" fill="currentColor" class="nc-icon-wrapper"></path></g></svg>