<svg xmlns="http://www.w3.org/2000/svg" viewBox="0 0 45 32"><g fill="currentColor" class="nc-icon-wrapper"><path d="M11.646 18.313L.915 18.285A.915.915 0 0 1 0 17.371V.914C0 .409.411 0 .917 0h19.254c.506 0 .917.409.917.914v15.543C21.088 25.041 14.109 32 5.501 32a.916.916 0 0 1-.917-.914v-7.314c0-.505.41-.914.917-.914a6.422 6.422 0 0 0 6.145-4.543zm7.608-16.485H1.833v14.631l10.944.029a.915.915 0 0 1 .907 1.031c-.488 3.776-3.519 6.701-7.267 7.116v5.506c7.168-.471 12.836-6.417 12.836-13.684V1.829zm10.427 21.029a6.422 6.422 0 0 0 6.145-4.543l-10.731-.028a.916.916 0 0 1-.915-.915V.914c0-.505.411-.914.917-.914h19.254c.506 0 .917.409.917.914v15.543C45.268 25.041 38.289 32 29.681 32a.916.916 0 0 1-.917-.914v-7.314c0-.505.41-.914.917-.914zM43.435 1.828H26.014v14.631l10.944.029a.915.915 0 0 1 .907 1.031c-.489 3.776-3.519 6.701-7.267 7.116v5.506c7.168-.471 12.836-6.417 12.836-13.684V1.829z"></path></g></svg>