<svg xmlns="http://www.w3.org/2000/svg" viewBox="0 0 34 32"><g fill="currentColor" class="nc-icon-wrapper"><path d="M0 1.684C0 .754.758 0 1.694 0h5.544a1.69 1.69 0 0 1 1.66 1.35l1.112 5.467h22.177c.505 0 .984.224 1.306.612s.453.898.357 1.391l-2.22 11.452a4.406 4.406 0 0 1-1.586 2.579 4.504 4.504 0 0 1-2.861.969H13.738a4.504 4.504 0 0 1-2.861-.969 4.4 4.4 0 0 1-1.586-2.578L6.977 8.902a1.448 1.448 0 0 1-.027-.131L5.851 3.368H1.692A1.689 1.689 0 0 1-.002 1.684zm10.697 8.501l1.917 9.423c.048.236.179.451.375.607s.446.241.704.236H27.23a1.1 1.1 0 0 0 .704-.236c.195-.155.326-.368.374-.602l1.828-9.428h-19.44zm2.086 19.088c.153 0 .308-.127.308-.321s-.155-.321-.308-.321-.308.127-.308.321.155.321.308.321zm-3.08-.321c0-1.7 1.396-3.048 3.08-3.048s3.08 1.348 3.08 3.048S14.467 32 12.783 32s-3.08-1.348-3.08-3.048zm18.327.321c.153 0 .308-.127.308-.321s-.155-.321-.308-.321-.308.127-.308.321.155.321.308.321zm-3.08-.321c0-1.7 1.396-3.048 3.08-3.048s3.08 1.348 3.08 3.048S29.714 32 28.03 32s-3.08-1.348-3.08-3.048z"></path></g></svg>