<svg xmlns="http://www.w3.org/2000/svg" viewBox="0 0 12 11"><g fill="none" class="nc-icon-wrapper"><path fill-rule="evenodd" clip-rule="evenodd" d="M2.4 1.938V0H1.2v1.938c-.7.251-1.2.93-1.2 1.729 0 .798.5 1.477 1.2 1.729V11h1.2V5.396c.7-.252 1.2-.931 1.2-1.73 0-.798-.5-1.477-1.2-1.728zM1.2 3.667c0-.338.269-.611.6-.611.331 0 .6.273.6.61a.606.606 0 0 1-.6.612.606.606 0 0 1-.6-.611z" fill="currentColor"></path><path fill-rule="evenodd" clip-rule="evenodd" d="M5.4 6.215c-.7.252-1.2.931-1.2 1.73 0 .798.5 1.477 1.2 1.728V11h1.2V9.673c.7-.251 1.2-.93 1.2-1.729 0-.798-.5-1.477-1.2-1.729V0H5.4v6.215zm0 1.73c0-.338.269-.612.6-.612.331 0 .6.274.6.611a.606.606 0 0 1-.6.612.606.606 0 0 1-.6-.612z" fill="currentColor"></path><path fill-rule="evenodd" clip-rule="evenodd" d="M10.8 3.16V0H9.6v3.16c-.7.252-1.2.93-1.2 1.729 0 .798.5 1.477 1.2 1.729V11h1.2V6.618c.7-.252 1.2-.93 1.2-1.73 0-.797-.5-1.476-1.2-1.728zM9.6 4.889c0-.338.269-.611.6-.611.331 0 .6.273.6.61a.606.606 0 0 1-.6.612.606.606 0 0 1-.6-.611z" fill="currentColor"></path></g></svg>