<svg xmlns="http://www.w3.org/2000/svg" viewBox="0 0 58 58"><g fill="none" class="nc-icon-wrapper"><path d="M29 3.867c-13.034 0-23.787 9.768-25.013 22.722a.965.965 0 0 0 1.377.964c7.414-3.53 15.365-5.32 23.635-5.32 8.27 0 16.222 1.79 23.636 5.32a.966.966 0 1 0 1.377-.964C52.786 13.636 42.033 3.868 28.999 3.868zM29 20.3c-7.968 0-15.652 1.606-22.866 4.774C7.997 13.972 17.544 5.801 29 5.801c11.455 0 21 8.172 22.865 19.273-7.215-3.168-14.9-4.774-22.866-4.774z" fill="currentColor"></path><path d="M29 0C13.158 0 .163 12.873.01 28.706c-.008.098-.01.2-.01.294 0 2.44.306 4.875.91 7.239 2.82 10.985 11.856 19.35 23.016 21.31 1.647.3 3.354.451 5.074.451 1.72 0 3.428-.152 5.069-.45 11.165-1.96 20.201-10.326 23.02-21.313.605-2.364.911-4.8.911-7.237 0-.093-.002-.196-.01-.294C57.838 12.873 44.843.002 29 .002V0zm26.217 35.758c-2.632 10.251-11.064 18.06-21.488 19.887a26.974 26.974 0 0 1-9.462 0c-10.42-1.829-18.852-9.636-21.484-19.886a27.34 27.34 0 0 1-.85-6.76c0-.04-.001-.085.002-.124a1 1 0 0 0 .007-.11C2.064 13.97 14.202 1.933 29 1.933s26.936 12.036 27.057 26.832c0 .032.003.078.006.109.005.04.003.085.003.125a27.34 27.34 0 0 1-.85 6.758z" fill="currentColor"></path><path d="M5.857 34.83a.944.944 0 0 0-.806.367.965.965 0 0 0-.17.87 25.034 25.034 0 0 0 18.933 17.524.961.961 0 0 0 .854-.237.966.966 0 0 0 .303-.831A20.25 20.25 0 0 0 5.857 34.829zm1.323 2.056a18.315 18.315 0 0 1 15.64 14.477A23.095 23.095 0 0 1 7.18 36.886z" fill="currentColor"></path><path d="M52.123 34.83a19.887 19.887 0 0 0-1.79.17c-.176.021-.35.055-.47.078a7.262 7.262 0 0 0-.7.123 7.987 7.987 0 0 0-.711.155c-.274.063-.536.127-.786.205-.257.072-.503.143-.736.221a18.11 18.11 0 0 0-2.837 1.16 7.915 7.915 0 0 0-.597.312 18.322 18.322 0 0 0-1.545.93l-.1.065a20.108 20.108 0 0 0-5.508 5.491 18.502 18.502 0 0 0-.558.875 8.818 8.818 0 0 0-.45.785 10.9 10.9 0 0 0-.407.773 19.588 19.588 0 0 0-1.434 3.9c-.082.319-.154.628-.214.939-.06.295-.118.592-.159.897a2.08 2.08 0 0 0-.05.333c-.01.047-.017.095-.022.142a1.18 1.18 0 0 0-.03.26.974.974 0 0 0 1.176.947 25.054 25.054 0 0 0 18.921-17.524.98.98 0 0 0-.994-1.238h.001zm-16.94 16.532c.053-.27.115-.534.186-.81a17.7 17.7 0 0 1 1.297-3.531c.105-.218.22-.437.364-.69.12-.231.25-.464.395-.688a.997.997 0 0 0 .05-.085l.003-.005c.145-.237.292-.474.464-.724a18.134 18.134 0 0 1 4.973-4.966l.092-.061a18.122 18.122 0 0 1 1.43-.861c.16-.093.32-.177.51-.267a16.477 16.477 0 0 1 2.579-1.055c.217-.071.435-.135.685-.205.228-.07.45-.122.71-.184a6.95 6.95 0 0 1 .625-.136 6.23 6.23 0 0 1 .619-.108c.122-.023.246-.048.37-.063a.786.786 0 0 0 .057-.007l.226-.03a23.117 23.117 0 0 1-15.636 14.477z" fill="currentColor"></path><path d="M37.7 33.833c0-4.797-3.903-8.7-8.7-8.7-4.797 0-8.7 3.903-8.7 8.7 0 4.798 3.903 8.7 8.7 8.7 4.797 0 8.7-3.902 8.7-8.7zM29 40.6a6.775 6.775 0 0 1-6.767-6.767A6.775 6.775 0 0 1 29 27.067a6.775 6.775 0 0 1 6.766 6.766A6.775 6.775 0 0 1 29 40.6z" fill="currentColor"></path></g></svg>