<svg xmlns="http://www.w3.org/2000/svg" viewBox="0 0 56 57"><g fill="currentColor" class="nc-icon-wrapper"><path d="M3.481.003L0 3.484 7.659 14.21a3.48 3.48 0 0 0 2.837 1.46h.244a3.484 3.484 0 0 1 2.465 1.02l9.312 9.312-9.11 9.24A10.455 10.455 0 0 0 0 45.26a10.444 10.444 0 1 0 20.463-2.963l9.24-9.11 3.37 3.37-1.062 3.181a3.48 3.48 0 0 0 .842 3.562l11.684 11.683a3.481 3.481 0 0 0 4.922 0l5.522-5.522a3.481 3.481 0 0 0 0-4.922L43.297 32.856a3.482 3.482 0 0 0-3.561-.842l-3.182 1.062-3.342-3.342 9.33-9.202a10.46 10.46 0 0 0 13.16-10.085 10.3 10.3 0 0 0-.356-2.705l-7.45 7.454-6.12-1.268-1.267-6.116L47.962.358A10.444 10.444 0 0 0 35.168 13.17l-9.19 9.323-9.292-9.284a3.481 3.481 0 0 1-1.02-2.462V10.5a3.48 3.48 0 0 0-1.459-2.833L3.481.003zm33.581 37.062a1.742 1.742 0 0 1 2.465 0L49.971 47.51a1.744 1.744 0 0 1-2.465 2.465L37.062 39.53a1.742 1.742 0 0 1 0-2.465zm-26.618 1.233l1.64.842 1.841.09 1 1.55 1.549 1 .09 1.84.843 1.64-.843 1.64-.09 1.842-1.55.999-.999 1.55-1.841.09-1.64.842-1.64-.842-1.841-.09-1-1.55-1.549-1-.09-1.84-.843-1.64.843-1.64.09-1.842 1.55-.999.999-1.55 1.841-.09 1.64-.842z" fill="currentColor" class="nc-icon-wrapper"></path></g></svg>