<svg xmlns="http://www.w3.org/2000/svg" viewBox="0 0 37 42"><g fill="none" class="nc-icon-wrapper"><path d="M18.5 1.833l16.733 5.84v6.032c0 13.102-6.614 20.852-16.732 26.35-10.119-5.5-16.728-13.249-16.728-26.351V7.672L18.5 1.833zM18.21.05L.596 6.196A.889.889 0 0 0 0 7.04v6.665C0 27.62 7.366 36.202 18.085 41.898a.895.895 0 0 0 .83 0C29.632 36.202 37 27.62 37 13.704V7.039c0-.383-.24-.72-.596-.843L18.792.05a.87.87 0 0 0-.581 0z" fill="currentColor"></path><path fill-rule="evenodd" clip-rule="evenodd" d="M26.258 13.812l1.944 1.918c.17.165.17.391 0 .558-.522.52-6.176 6.302-9.277 9.416-.812.808-1.632 1.612-2.452 2.425a.406.406 0 0 1-.587.005l-7.078-7.092c-.167-.167-.162-.413.005-.584.664-.671 1.547-1.579 1.973-2.01.17-.171.395-.171.571 0l4.206 4.226a.887.887 0 0 0 1.256 0l8.7-8.72c.25-.25.568-.313.739-.142zm-.459-1.823a2.492 2.492 0 0 0-1.53.711l-8.074 8.083-3.587-3.588a2.177 2.177 0 0 0-3.072.005c-.43.436-1.324 1.337-1.983 2.01-.836.848-.845 2.239 0 3.087l7.083 7.098a2.19 2.19 0 0 0 3.083.004c.815-.807 1.64-1.617 2.457-2.44 3.117-3.122 8.93-9.07 9.272-9.406.85-.838.84-2.25-.004-3.087l-1.94-1.918c-.489-.48-1.139-.613-1.705-.559z" fill="currentColor"></path></g></svg>