<svg xmlns="http://www.w3.org/2000/svg" viewBox="0 0 38 32"><g fill="currentColor" class="nc-icon-wrapper"><path d="M38.225 3.793a.754.754 0 0 0-.878-.202c-.457.202-.922.379-1.392.531a8.323 8.323 0 0 0 1.395-2.599.744.744 0 0 0-.245-.813.754.754 0 0 0-.851-.06 14.374 14.374 0 0 1-4.191 1.655A8.37 8.37 0 0 0 26.3-.001c-4.586 0-8.317 3.712-8.317 8.275 0 .3.017.601.049.902a20.922 20.922 0 0 1-3.481-.629.746.746 0 1 0-.394 1.441c1.537.416 3.129.667 4.731.747a.748.748 0 0 0 .77-.909 7.089 7.089 0 0 1-.175-1.552c0-3.74 3.058-6.783 6.817-6.783 1.878 0 3.69.78 4.97 2.139a.747.747 0 0 0 .69.222 15.815 15.815 0 0 0 2.998-.894 6.84 6.84 0 0 1-2.039 1.865c-.304.181-.438.548-.324.881s.447.542.798.5a15.734 15.734 0 0 0 2.054-.382c-.614.64-1.29 1.223-2.019 1.745a.746.746 0 0 0-.311.625l.022.966c-.004 10.159-7.777 20.665-20.78 20.665-2.972 0-5.883-.628-8.561-1.836a15.878 15.878 0 0 0 8.62-3.327.743.743 0 0 0-.445-1.333 6.852 6.852 0 0 1-5.904-3.611 8.509 8.509 0 0 0 2.43-.278.749.749 0 0 0 .558-.743.747.747 0 0 0-.601-.709 6.834 6.834 0 0 1-5.375-5.554 8.044 8.044 0 0 0 2.561.486.744.744 0 1 0 .434-1.367A6.751 6.751 0 0 1 3.043 5.91c0-.841.155-1.668.453-2.439a22.348 22.348 0 0 0 4.116 3.542.747.747 0 1 0 .834-1.241 20.81 20.81 0 0 1-4.547-4.124.75.75 0 0 0-1.228.095 8.202 8.202 0 0 0-1.13 4.166c0 1.82.595 3.552 1.659 4.962a7.569 7.569 0 0 1-.601-.294.753.753 0 0 0-.745.01.747.747 0 0 0-.369.642v.092c0 2.761 1.385 5.269 3.549 6.787a.754.754 0 0 0-.716.238.74.74 0 0 0-.151.722 8.326 8.326 0 0 0 5.778 5.467 14.442 14.442 0 0 1-7.396 2.005c-.574 0-1.136-.031-1.718-.096a.747.747 0 1 0-.488 1.371 22.306 22.306 0 0 0 12.013 3.5c3.434 0 6.646-.678 9.55-2.017a21.093 21.093 0 0 0 6.996-5.215c3.644-4.112 5.733-9.555 5.733-14.933v-.017l-.012-.59a15.893 15.893 0 0 0 3.65-3.857.745.745 0 0 0-.05-.895zM10.703 8.741l.035.016a.75.75 0 0 0 .994-.367.744.744 0 0 0-.369-.989l-.031-.014c-.378-.175-.822-.012-.996.363s-.01.818.367.991zm17.162 10.768c.255 0 .505-.13.645-.364.213-.353.098-.812-.257-1.024s-.816-.097-1.029.256l-.001.002a.744.744 0 0 0 .258 1.023.734.734 0 0 0 .384.107zm-6.001 6.143a18.202 18.202 0 0 0 5.026-4.234.745.745 0 0 0-.101-1.051.753.753 0 0 0-1.056.101 16.701 16.701 0 0 1-4.613 3.887.745.745 0 0 0 .373 1.395.745.745 0 0 0 .372-.098z"></path></g></svg>