<svg xmlns="http://www.w3.org/2000/svg" enable-background="new 0 0 40.6 36.6" viewBox="0 0 40.6 36.6"><g fill="currentColor" class="nc-icon-wrapper"><path d="M20.3 36.6c-7.4 0-14-4.3-16.8-11.1 0-.1-.2-.3-.4-.3-.9-.3-1.6-.5-2-.7-.5-.2-.6-.2-.7-.2l-.4-.1V12.3l.5-.2c.1 0 .4-.1 1.8-.6l1-.4.2-.1c.1 0 .2-.1.2-.3C6.6 4.2 13.2 0 20.3 0 27.5 0 34 4.2 37 10.8c0 .1.2.3.4.3 1.7.5 2.6.9 2.8 1l.4.2v11.8l-.5.2s-.2.1-.9.3c-.5.2-1.1.4-1.9.7l-.1.1c-.1 0-.2.1-.2.3a18.2 18.2 0 0 1-16.7 10.9zM6.6 26.2c-.2 0-.4.1-.5.3-.1.1-.1.3 0 .5 3 5 8.3 8 14.2 8 5.8 0 11.1-3 14.2-7.9.1-.2.1-.5-.1-.6-.1-.1-.2-.2-.4-.2h-.2c-4.9 1.3-9.4 2-13.5 2-4.8 0-10-1.2-13.6-2.1h-.1zM1.9 13.3c-.2 0-.3.3-.3.5v8.9c0 .2.2.5.4.5 4 1.3 11.8 3.6 18.3 3.6 7.3 0 14.7-2.3 18.5-3.6.2 0 .3-.3.3-.5v-8.9c0-.2-.2-.5-.4-.5-2.4-.8-11-3.6-18.5-3.6-3.6 0-9.6.6-18.3 3.6zM20.1 8c4.9 0 10.1 1.1 13.5 2h.2c.2 0 .4-.1.5-.3.1-.2.1-.4 0-.5-3.1-4.8-8.3-7.6-14-7.6-5.6 0-10.8 2.8-14 7.6-.1.2 0 .5.1.6.1.1.2.2.4.2H7c4.8-1.3 9.3-2 13.1-2z"></path><path d="M18.3 21.7c-.1 0-.3-.1-.3-.4v-7.4c0-.2.1-.3.2-.3h.1l6.4 3.8c.1 0 .1.1.1.1 0 .1 0 .2-.1.3l-6.4 3.7v.2z"></path></g></svg>