<svg xmlns="http://www.w3.org/2000/svg" viewBox="0 0 28 32"><g fill="currentColor" class="nc-icon-wrapper"><path d="M27.625 7.125H.375A.375.375 0 0 1 0 6.75v-1.5c0-.207.168-.375.375-.375h27.25c.207 0 .375.168.375.375v1.5a.375.375 0 0 1-.375.375zm0 10H.375A.375.375 0 0 1 0 16.75v-1.5c0-.207.168-.375.375-.375h27.25c.207 0 .375.168.375.375v1.5a.375.375 0 0 1-.375.375zm0 10H.375A.375.375 0 0 1 0 26.75v-1.5c0-.207.168-.375.375-.375h27.25c.207 0 .375.168.375.375v1.5a.375.375 0 0 1-.375.375z"></path></g></svg>