<svg xmlns="http://www.w3.org/2000/svg" viewBox="0 0 32 32"><g fill="currentColor" class="nc-icon-wrapper"><path d="M9.8 20l-4-18H0v2h4.2l4 18.067H32V20z"></path><path d="M26 24c-1.667 0-3 1.333-3 3s1.333 3 3 3 3-1.333 3-3-1.333-3-3-3zm0 4c-.533 0-1-.4-1-1s.467-1 1-1 1 .4 1 1-.4 1-1 1z"></path><path d="M11 24c-1.667 0-3 1.333-3 3s1.333 3 3 3 3-1.333 3-3-1.333-3-3-3zm0 4c-.533 0-1-.4-1-1s.4-1 1-1c.533 0 1 .4 1 1s-.467 1-1 1z"></path><path d="M14.667 16.667l5.8-5.8 5.8 5.8 1.4-1.4-5.8-5.8 5.8-5.8-1.4-1.4-5.8 5.8-5.8-5.733-1.333 1.333 5.8 5.8-5.867 5.867z"></path></g></svg>