<svg xmlns="http://www.w3.org/2000/svg" viewBox="0 0 38 32"><g class="nc-icon-wrapper"><path fill="#000" d="M37.098 10.956C33.193 3.851 26.359-.759 14.698.109 3.037.923-1.519 10.143.434 17.628c2.007 7.539 10.63 9.275 10.63 9.275 6.671 1.139 9.871.868 9.871.868l1.844 4.285 1.356-5.098c6.237-2.061 16.922-8.895 12.963-16z"></path><path fill="#fff" d="M20.339 6.78c-.976 0-2.224 0-2.224.542 0 0-.108 4.719 0 5.749v.054h-4.014c0-.976-.054-1.681 0-2.007.054-1.302.325-4.339-.054-4.447-.38-.054-3.037-.38-3.092 0 0 0-.163 6.237 0 9.22.163 3.037-.217 6.075.271 6.183.488.163 2.495.163 2.82 0 .217-.108.163-3.688.108-6.78 1.302 0 2.929 0 4.014-.054 0 1.085 0 2.224-.163 2.766-.217 1.03 0 3.525 0 3.525s0 .38.759.38h1.79s.542.325.434-.976c-.108-1.302-.163-6.942 0-8.298.217-1.41.271-5.315.271-5.315s.054-.542-.922-.542zm6.563 5.369c-.217-.814.434-1.464-.651-1.464h-1.085s-.597.054-.651.542c-.054.488-.163 2.929 0 5.153s-.054 4.881-.054 4.881-.271.434.325.434c.651.054 2.061.38 2.115-.488.054-.814.217-8.244 0-9.058zm-.271-2.874c.814-.651.325-1.844-.38-1.953-.759-.163-1.139 0-1.139 0s-.814.759-.38 1.464 1.085 1.139 1.898.488z"></path></g></svg>