<svg xmlns="http://www.w3.org/2000/svg" viewBox="0 0 32 32"><g fill="currentColor" class="nc-icon-wrapper"><path d="M29 4H3C1.344 4 0 5.344 0 7v18c0 1.656 1.344 3 3 3h26c1.656 0 3-1.344 3-3V7c0-1.656-1.344-3-3-3zM3 6h26c.55 0 1 .45 1 1v2.588c-1.369 1.156-3.325 2.75-9.413 7.581-1.056.837-3.137 2.856-4.588 2.831-1.45.025-3.537-1.994-4.588-2.831-6.088-4.831-8.044-6.425-9.412-7.581V7c0-.55.45-1 1-1zm26 20H3c-.55 0-1-.45-1-1V12.187c1.425 1.169 3.675 2.975 8.169 6.544C11.45 19.756 13.713 22.012 16 22c2.275.019 4.519-2.219 5.831-3.269 4.494-3.569 6.744-5.375 8.169-6.544V25c0 .55-.45 1-1 1z"></path></g></svg>