<svg xmlns="http://www.w3.org/2000/svg" viewBox="0 0 37 32"><g fill="currentColor" class="nc-icon-wrapper"><path d="M18.286 31.943c-.229 0-.686-.229-.914-.457l-14.4-14.171C1.143 15.486.001 12.972.001 10.229s1.143-5.257 2.971-7.314c3.886-3.886 10.514-3.886 14.4 0l.914.914.914-.914c3.886-3.886 10.514-3.886 14.4 0 2.057 1.829 2.971 4.571 2.971 7.314s-1.143 5.257-2.971 7.314L19.2 31.714c-.229.229-.686.229-.914.229zM10.743 3.371c-1.829 0-3.886.686-5.257 2.057s-2.057 3.2-2.057 5.029c0 1.829.686 3.657 2.057 5.029l12.8 12.571 12.8-12.571c1.371-1.371 2.057-3.2 2.057-5.029s-.686-3.657-2.057-5.029c-2.743-2.743-7.543-2.743-10.286 0l-1.6 1.6a1.105 1.105 0 0 1-1.6 0l-1.829-1.6c-1.371-1.371-3.2-2.057-5.029-2.057z"></path></g></svg>