<svg xmlns="http://www.w3.org/2000/svg" viewBox="0 0 24 32"><g fill="currentColor" class="nc-icon-wrapper"><path d="M12 0C5.4 0 0 5.4 0 12c0 4.8 1.6 6.2 10.8 19.4.3.4.75.6 1.2.6s.9-.2 1.2-.6C22.4 18.2 24 16.8 24 12c0-6.6-5.4-12-12-12zm.001 29.625c-1.229-1.761-2.318-3.303-3.281-4.668C2.665 16.373 2 15.32 2 12 2 6.486 6.486 2 12 2s10 4.486 10 10c0 3.319-.665 4.373-6.72 12.957-.97 1.376-2.068 2.933-3.279 4.668zm5.583-21.221a.498.498 0 0 0-.353-.146h-.001a.502.502 0 0 0-.354.146l-6.718 6.717-3.036-3.036a.498.498 0 0 0-.353-.146h-.001a.502.502 0 0 0-.354.146l-.707.707a.5.5 0 0 0 0 .707l4.096 4.096a.498.498 0 0 0 .707 0l7.778-7.778a.5.5 0 0 0 0-.707l-.706-.707z"></path></g></svg>