<svg xmlns="http://www.w3.org/2000/svg" viewBox="0 0 20 32"><g fill="currentColor" class="nc-icon-wrapper"><path d="M14 6v15H6V6h8zm3-6H3C1.344 0 0 1.344 0 3v26c0 1.656 1.344 3 3 3h14c1.656 0 3-1.344 3-3V3c0-1.656-1.344-3-3-3zM3 30c-.55 0-1-.45-1-1V3c0-.55.45-1 1-1h14c.55 0 1 .45 1 1v26c0 .55-.45 1-1 1H3zM15.25 4H4.75a.753.753 0 0 0-.75.75v17.5c0 .413.338.75.75.75h10.5c.412 0 .75-.337.75-.75V4.75a.753.753 0 0 0-.75-.75zm-3 22h-4.5a.752.752 0 0 0-.75.75v.5c0 .413.338.75.75.75h4.5c.412 0 .75-.337.75-.75v-.5a.752.752 0 0 0-.75-.75z"></path></g></svg>