<svg xmlns="http://www.w3.org/2000/svg" viewBox="0 0 40 32"><g fill="currentColor" class="nc-icon-wrapper"><path d="M20 9c-3.313 0-6 3.131-6 7 0 3.863 2.688 7 6 7s6-3.131 6-7-2.688-7-6-7zm0 12c-2.206 0-4-2.244-4-5s1.794-5 4-5 4 2.244 4 5-1.794 5-4 5zM38 4H2C.894 4 0 4.894 0 6v20c0 1.106.894 2 2 2h36c1.106 0 2-.894 2-2V6c0-1.106-.894-2-2-2zM2 6h4c0 2.206-1.794 4-4 4V6zm0 20v-4c2.206 0 4 1.794 4 4H2zm36 0h-4c0-2.206 1.794-4 4-4v4zm0-6a6.01 6.01 0 0 0-6 6H8c0-3.306-2.694-6-6-6v-8c3.306 0 6-2.694 6-6h24c0 3.306 2.694 6 6 6v8zm0-10c-2.206 0-4-1.794-4-4h4v4z"></path></g></svg>