<svg xmlns="http://www.w3.org/2000/svg" viewBox="0 0 32 32"><g fill="currentColor" class="nc-icon-wrapper"><path d="M24 15.625v.75c0 .413-.337.75-.75.75h-6.125v6.125c0 .413-.337.75-.75.75h-.75a.752.752 0 0 1-.75-.75v-6.125H8.75a.752.752 0 0 1-.75-.75v-.75c0-.412.338-.75.75-.75h6.125V8.75c0-.412.338-.75.75-.75h.75c.413 0 .75.338.75.75v6.125h6.125c.413 0 .75.338.75.75zm7.5.375c0 8.563-6.938 15.5-15.5 15.5S.5 24.562.5 16 7.438.5 16 .5 31.5 7.438 31.5 16zm-2 0c0-7.494-6.081-13.5-13.5-13.5C8.506 2.5 2.5 8.581 2.5 16c0 7.494 6.081 13.5 13.5 13.5 7.494 0 13.5-6.081 13.5-13.5z"></path></g></svg>