<svg xmlns="http://www.w3.org/2000/svg" viewBox="0 0 30 32"><g fill="currentColor" class="nc-icon-wrapper"><path d="M29.593 27.076l-5.79-5.79a13.166 13.166 0 0 0 2.718-8.023c0-3.543-1.38-6.874-3.885-9.38A13.179 13.179 0 0 0 13.256 0C9.713 0 6.382 1.38 3.878 3.885c-5.171 5.173-5.171 13.587 0 18.758a13.176 13.176 0 0 0 9.38 3.885c2.94 0 5.726-.962 8.022-2.718l5.79 5.79a1.783 1.783 0 0 0 2.526 0 1.785 1.785 0 0 0-.004-2.524zM6.402 20.119c-3.78-3.78-3.78-9.929 0-13.709 1.832-1.83 4.265-2.839 6.856-2.839s5.024 1.009 6.855 2.839c1.832 1.832 2.839 4.265 2.839 6.856s-1.009 5.024-2.839 6.856c-1.83 1.832-4.265 2.839-6.855 2.839s-5.026-1.009-6.856-2.84z"></path></g></svg>