<svg xmlns="http://www.w3.org/2000/svg" viewBox="0 0 32 32"><g fill="currentColor" class="nc-icon-wrapper"><path d="M29.156 5.231l-12-5c-.341-.145-.737-.23-1.153-.23s-.812.084-1.173.237l.02-.007-12 5A2.997 2.997 0 0 0 1 8c0 12.406 7.156 20.981 13.844 23.769a3.011 3.011 0 0 0 2.306 0C22.506 29.538 31 21.831 31 8a3 3 0 0 0-1.844-2.769zM16.387 29.925c-.25.1-.525.1-.769 0C9.499 27.5 2.999 19 2.999 8c0-.406.244-.769.612-.925l12-5c.244-.1.525-.1.769 0l12 5a.986.986 0 0 1 .613.925c.006 11-6.494 19.5-12.606 21.925zM24.9 9.613a.756.756 0 0 0-1.063-.006L13.624 19.738l-4.313-4.344a.756.756 0 0 0-1.063-.006l-.531.531a.756.756 0 0 0-.006 1.063l5.369 5.413a.756.756 0 0 0 1.063.006l11.281-11.188a.756.756 0 0 0 .006-1.063z"></path></g></svg>