<svg xmlns="http://www.w3.org/2000/svg" viewBox="0 0 32 32"><g fill="currentColor" class="nc-icon-wrapper"><path d="M28.316 10.496L25.667 2.55a.479.479 0 0 0-.454-.327H6.673a.479.479 0 0 0-.454.327L3.57 10.496a.488.488 0 0 0-.025.151v18.54c0 .264.214.478.478.478H27.86a.478.478 0 0 0 .478-.478v-18.54a.46.46 0 0 0-.025-.151zm-1.053-.135c-.981.717-2.077 1.057-3.43 1.057a5.996 5.996 0 0 1-3.438-1.097V3.178h4.474l2.394 7.182zM12.449 3.179h6.989v7.144a5.997 5.997 0 0 1-3.437 1.096c-1.272 0-2.494-.412-3.552-1.184zm-5.431 0h4.474v7.056c-1.057.772-2.279 1.184-3.552 1.184a6.031 6.031 0 0 1-3.336-1l2.413-7.24zM4.503 28.708V11.475a6.98 6.98 0 0 0 3.437.9 6.923 6.923 0 0 0 4.03-1.3 6.923 6.923 0 0 0 4.03 1.3 6.946 6.946 0 0 0 3.916-1.215 6.948 6.948 0 0 0 3.916 1.215c1.349 0 2.517-.314 3.551-.946v17.279z"></path><path d="M20.665 14.632h-9.443a.478.478 0 0 0-.478.478v8.778c0 .264.214.478.478.478h9.443a.478.478 0 0 0 .478-.478V15.11a.478.478 0 0 0-.478-.478zm-8.965.957h3.813v7.822H11.7zm8.487 7.822h-3.716v-7.822h3.716z"></path></g></svg>