<svg xmlns="http://www.w3.org/2000/svg" viewBox="0 0 32 32"><g fill="currentColor" class="nc-icon-wrapper"><path d="M27.25 17.537a.436.436 0 0 0 .437-.437v-3.187a.438.438 0 0 0-.438-.437h-1.414a2.789 2.789 0 0 1-1.165-1.249 2.832 2.832 0 0 1 1.351-3.763.436.436 0 0 0 .209-.582l-1.36-2.884a.436.436 0 0 0-.582-.209L5.863 13.477H4.748a.437.437 0 0 0-.437.437v3.187a.437.437 0 0 0 .437.437 2.825 2.825 0 0 1 2.801 2.828 2.826 2.826 0 0 1-2.801 2.828.436.436 0 0 0-.437.437v3.187a.437.437 0 0 0 .437.437h22.5a.437.437 0 0 0 .437-.437v-3.187a.436.436 0 0 0-.437-.437 2.825 2.825 0 0 1-2.801-2.828 2.826 2.826 0 0 1 2.801-2.828zM24.267 5.765l.997 2.115a3.709 3.709 0 0 0-1.701 2.609 3.707 3.707 0 0 0 .892 2.985H7.917l16.35-7.71zm-.72 14.6a3.709 3.709 0 0 0 3.265 3.676v2.338H5.187v-2.338a3.705 3.705 0 0 0 3.265-3.677 3.702 3.702 0 0 0-3.265-3.677v-2.338h21.625v2.338a3.705 3.705 0 0 0-3.265 3.677z"></path><path d="M21.084 15.13a.436.436 0 0 0-.437.437v1.791a.437.437 0 1 0 .874 0v-1.791a.436.436 0 0 0-.437-.437z"></path><path d="M17.102 16.525h-6.915a.437.437 0 1 0 0 .874h6.915a.437.437 0 1 0 0-.874z"></path><path d="M17.102 19.927h-6.915a.437.437 0 1 0 0 .874h6.915a.437.437 0 1 0 0-.874z"></path><path d="M17.102 23.329h-6.915a.437.437 0 1 0 0 .874h6.915a.437.437 0 1 0 0-.874z"></path><path d="M21.084 19.031a.437.437 0 0 0-.437.437v1.792a.437.437 0 1 0 .874 0v-1.792a.437.437 0 0 0-.437-.437z"></path><path d="M21.084 22.932a.437.437 0 0 0-.437.437v1.792a.437.437 0 1 0 .874 0v-1.792a.437.437 0 0 0-.437-.437z"></path></g></svg>