<svg xmlns="http://www.w3.org/2000/svg" viewBox="0 0 32 32"><g fill="currentColor" class="nc-icon-wrapper"><path d="M30.097 15.828h-2.474v-4.175a.478.478 0 0 0-.478-.478h-7.749V7.008a.478.478 0 0 0-.478-.478H1.793a.478.478 0 0 0-.478.478v15.684c0 .264.214.478.478.478h3.998c.166 1.233 1.222 2.188 2.499 2.188s2.333-.955 2.499-2.188h11.217c.166 1.233 1.223 2.188 2.501 2.188s2.335-.955 2.502-2.188h3.089a.478.478 0 0 0 .478-.478v-6.385a.479.479 0 0 0-.479-.478zM8.289 24.402a1.57 1.57 0 0 1 0-3.138 1.57 1.57 0 0 1 0 3.138zm0-4.095a2.526 2.526 0 0 0-2.444 1.907H2.27V7.487h16.169v14.727h-7.705a2.528 2.528 0 0 0-2.445-1.906zm16.218 4.095c-.866 0-1.57-.704-1.57-1.569a1.571 1.571 0 0 1 3.14 0c0 .865-.705 1.569-1.57 1.569zm5.111-2.189h-2.665c-.277-1.094-1.268-1.907-2.447-1.907s-2.169.813-2.446 1.907h-2.665V12.131h7.271v4.175c0 .264.214.478.478.478h2.474v5.428z"></path></g></svg>