<svg xmlns="http://www.w3.org/2000/svg" viewBox="0 0 28 32"><g fill="currentColor" class="nc-icon-wrapper"><path d="M20 22h-.294c-.76 0-1.5.181-2.219.425-1.04.365-2.24.576-3.489.576s-2.448-.211-3.565-.599l.076.023c-.717-.244-1.456-.424-2.214-.424h-.296a8 8 0 0 0-8 7.999 2 2 0 0 0 2 2h24a2 2 0 0 0 2-2 8 8 0 0 0-8-8zM2 30a6.007 6.007 0 0 1 6-6h.297c.432 0 .932.101 1.572.318 1.232.432 2.652.681 4.13.681s2.898-.249 4.22-.709l-.09.027c.644-.218 1.146-.319 1.578-.319h.294a6.007 6.007 0 0 1 6 6zm1-16a1 1 0 0 0 1-1v-1C4 6.486 8.486 2 14 2s10 4.486 10 10v1a5.006 5.006 0 0 1-5 5h-2a2 2 0 0 0-2-2h-2a2 2 0 1 0 0 4h6a7.009 7.009 0 0 0 7-7v-1c0-6.617-5.383-12-12-12S2 5.383 2 12v1a1 1 0 0 0 1 1zm11-8h.027a5.973 5.973 0 0 1 4.421 9.99l.004-.005c0 .006.008.009.011.015H19a2.989 2.989 0 0 0 2.527-1.399l.007-.012c.278-.816.466-1.678.466-2.589a8 8 0 0 0-16 0c0 2.526 1.194 4.75 3.022 6.217C9.018 18.144 9 18.075 9 18a3.94 3.94 0 0 1 .568-2.018l-.01.018a5.974 5.974 0 0 1 4.413-10h.03-.002z"></path></g></svg>