<svg xmlns="http://www.w3.org/2000/svg" viewBox="0 0 40 32"><g fill="currentColor" class="nc-icon-wrapper"><path d="M38.894 16.944l-7.2-2.813a1.908 1.908 0 0 0-1.388 0l-7.2 2.813c-.669.262-1.106.875-1.106 1.556 0 6.975 4.294 11.8 8.306 13.369a1.908 1.908 0 0 0 1.388 0C34.9 30.619 40 26.282 40 18.5c0-.681-.438-1.294-1.106-1.556zM30 29.5c-3.012-1.675-5.913-5.475-6-10.756l6-2.344v13.1zm1.038.506c-.006 0-.012-.006-.012-.006h.031a.03.03 0 0 0-.019.006zm.962-.475V16.4l6 2.344c-.094 5.925-3.569 9.387-6 10.788zM3 30c-.55 0-1-.45-1-1v-2.6C2 22.869 4.869 20 8.4 20c1.225 0 2.444 1 5.6 1 3.15 0 4.375-1 5.6-1 .163 0 .313.038.469.05A17.81 17.81 0 0 1 20 18.5c0-.156.05-.3.069-.45-.156-.006-.306-.05-.469-.05-1.794 0-2.656 1-5.6 1s-3.8-1-5.6-1A8.402 8.402 0 0 0 0 26.4V29c0 1.656 1.344 3 3 3h22c.425 0 .831-.094 1.2-.25A16.123 16.123 0 0 1 24.344 30H3zm11-14c4.419 0 8-3.581 8-8s-3.581-8-8-8-8 3.581-8 8 3.581 8 8 8zm0-14c3.306 0 6 2.694 6 6s-2.694 6-6 6-6-2.694-6-6 2.694-6 6-6z"></path></g></svg>