<svg xmlns="http://www.w3.org/2000/svg" enable-background="new 0 0 188 147.1" viewBox="0 0 188 147.1"><g fill="currentColor" class="nc-icon-wrapper"><path class="st0" d="M164.1 49.5c-2.4-.1-4.5 1.9-4.6 4.4-.1 4.2-.9 8.3-2.5 12.2-1.6 4-3.9 7.6-6.9 10.8l-65.9 59.8-65.9-59.8c-3-3.2-5.3-6.8-6.9-10.8-7.2-18 1.7-38.3 19.8-45.5 8.8-3.4 18.4-3.3 27.1.4 8.7 3.7 15.4 10.5 18.8 19.2 1.7 4.2 2.6 8.5 2.6 12.7 0 2.5 2 4.4 4.5 4.4s4.5-2 4.5-4.4c0-4.2.9-8.4 2.6-12.7 5.5-13.7 19.1-22.6 34-22.1 2.5.1 4.5-1.9 4.6-4.3.1-2.5-1.9-4.5-4.3-4.6C108 8.7 91.8 18.5 84.2 34c-4.6-9.5-12.5-17-22.3-21.2C51 8.2 39 8 28 12.3 5.3 21.2-5.9 46.8 3.1 69.3c2 5.1 5 9.7 8.8 13.7l.3.3 69.1 62.6c.9.8 1.9 1.2 3 1.2s2.2-.4 3-1.2l69.1-62.6.3-.3c3.8-4 6.7-8.6 8.8-13.7 2-4.9 3-10 3.1-15.3-.1-2.4-2-4.4-4.5-4.5zm2.1-21.6l20.5-20.3c1.8-1.7 1.8-4.6 0-6.3-1.8-1.7-4.6-1.7-6.3 0l-20.5 20.3-20.6-20.3c-1.8-1.7-4.6-1.7-6.3 0-1.8 1.7-1.8 4.6 0 6.3l20.5 20.3L133 48.2c-1.8 1.7-1.8 4.6 0 6.3.9.9 2 1.3 3.2 1.3 1.1 0 2.3-.4 3.2-1.3l20.5-20.3 20.5 20.3c.9.9 2 1.3 3.2 1.3 1.1 0 2.3-.4 3.2-1.3 1.8-1.7 1.8-4.6 0-6.3l-20.6-20.3z" fill="currentColor"></path></g></svg>