<svg width="8" height="9" viewBox="0 0 8 9" fill="none" xmlns="http://www.w3.org/2000/svg">
<g id="Frame">
<path id="Vector" d="M1.84566 1.20464C1.89958 1.17659 1.96012 1.16376 2.02079 1.16751C2.08145 1.17127 2.13995 1.19148 2.18999 1.22597L6.52333 4.22597C6.5676 4.25665 6.60379 4.2976 6.62878 4.34532C6.65377 4.39304 6.66683 4.4461 6.66683 4.49997C6.66683 4.55384 6.65377 4.6069 6.62878 4.65462C6.60379 4.70234 6.5676 4.74329 6.52333 4.77397L2.18999 7.77397C2.13998 7.80857 2.08146 7.82884 2.02076 7.83256C1.96006 7.83629 1.8995 7.82335 1.84564 7.79512C1.79177 7.7669 1.74665 7.72448 1.71516 7.67246C1.68367 7.62043 1.66701 7.56078 1.66699 7.49997L1.66699 1.49997C1.66698 1.43912 1.68363 1.37944 1.71512 1.32737C1.74662 1.27531 1.79176 1.23287 1.84566 1.20464Z" fill="#0073AA"/>
</g>
</svg>
