<svg width="24" height="24" viewBox="0 0 24 24" fill="none" xmlns="http://www.w3.org/2000/svg">
<path d="M6.55556 18.4C6.55556 18.8243 6.71944 19.2313 7.01117 19.5314C7.30289 19.8314 7.69855 20 8.11111 20H15.8889C16.3014 20 16.6971 19.8314 16.9888 19.5314C17.2806 19.2313 17.4444 18.8243 17.4444 18.4V8.8H19V7.2H15.8889V5.6C15.8889 5.17565 15.725 4.76869 15.4333 4.46863C15.1416 4.16857 14.7459 4 14.3333 4H9.66667C9.25411 4 8.85845 4.16857 8.56672 4.46863C8.275 4.76869 8.11111 5.17565 8.11111 5.6V7.2H5V8.8H6.55556V18.4ZM9.66667 5.6H14.3333V7.2H9.66667V5.6ZM8.88889 8.8H15.8889V18.4H8.11111V8.8H8.88889Z" fill="#006799"/>
<path d="M10 10H11.3333V17H10V10ZM12.6667 10H14V17H12.6667V10Z" fill="#006799"/>
</svg>
